<?xml version="1.0" encoding="utf-8"?>
<!-- Generator: Adobe Illustrator 16.0.0, SVG Export Plug-In . SVG Version: 6.00 Build 0)  -->
<!DOCTYPE svg PUBLIC "-//W3C//DTD SVG 1.1//EN" "http://www.w3.org/Graphics/SVG/1.1/DTD/svg11.dtd">
<svg version="1.1" id="Layer_1" xmlns="http://www.w3.org/2000/svg" xmlns:xlink="http://www.w3.org/1999/xlink" x="0px" y="0px"
	 width="124.036px" height="58.093px" viewBox="0 0 124.036 58.093" enable-background="new 0 0 124.036 58.093"
	 xml:space="preserve">
<path fill="#4D4D4D" d="M45.072,48.065C39.05,49.22,35.79,48.66,35.79,48.66c6.091-3.434,11.807-36.312,17.523-39.578
	c6.362-3.634,8.831-0.594,8.831-0.594C56.884,13.125,51.65,46.803,45.072,48.065z"/>
<path fill="#4D4D4D" d="M58.125,48.065c-6.021,1.155-9.281,0.595-9.281,0.595c6.091-3.434,11.807-36.312,17.522-39.578
	c6.363-3.634,8.832-0.594,8.832-0.594C69.937,13.125,64.704,46.803,58.125,48.065z"/>
<path fill="#4D4D4D" d="M71.178,48.065c-6.021,1.155-9.282,0.595-9.282,0.595c6.091-3.434,11.807-36.312,17.523-39.578
	c6.363-3.634,8.831-0.594,8.831-0.594C82.991,13.125,77.757,46.803,71.178,48.065z"/>
<g>
	<path fill-rule="evenodd" clip-rule="evenodd" fill="#4D4D4D" d="M49.688,14.958c-3.385-3.247-7.288-6.25-11.611-8.703
		c-6.841-3.88-15.811-6.419-22.254-6.248C8.808,0.196,4.388,2.854,2.248,5.789C-1.264,10.602-0.4,16.79,3.035,20.534
		c3.417,3.723,9.383,5.027,14.24,1.384c4.369-3.051,4.777-12.414-0.396-14.71c-2.289-1.016-5.703,0.206-4.645,2.251
		c0.174,0.337,0.454,0.499,0.766,0.686c-0.328-0.158-0.803-0.854-0.757-1.325c0.155-1.601,2.539-1.816,3.875-1.234
		c4.97,2.166,3.708,9.372,0.498,12.687c-3.414,3.525-8.033,2.709-11.225-0.138C2.012,17.12,0.233,11.832,3.174,7.004
		C5.509,3.17,10.851-0.063,21.341,1.75c8.55,1.478,18.862,5.83,27.485,13.215C49.47,15.578,50.224,15.933,49.688,14.958z"/>
	<path fill-rule="evenodd" clip-rule="evenodd" fill="#4D4D4D" d="M70.949,32.872C65.31,24.493,61.164,17,47.066,14.433
		c-9.512-1.731-19.283-0.089-22.831,7.326c-2.277,3.872-1.057,8.297,1.453,11.092c5.625,6.264,14.752,2.645,15.276-4.024
		c0.266-3.376-1.722-7.155-4.737-8.031c-3.584-1.04-5.343,2.3-2.948,3.266c-1.764-0.538-0.367-3.503,2.256-2.815
		c2.852,0.747,4.316,3.802,4.133,6.695c-0.419,6.633-8.129,9.237-12.978,3.779c-2.09-2.353-2.691-5.858-0.647-9.494
		c3.716-6.613,13.436-6.905,19.645-6.112C58.05,17.693,62.54,22.007,70.949,32.872z"/>
	<path fill-rule="evenodd" clip-rule="evenodd" fill="#4D4D4D" d="M71.088,33.152c-6.183-8.516-1.936,0.445-12.288-6.13
		c-3.934-2.499-6.865-8.603-12.928-14.142c-4.275-3.906-9.254-4.352-10.611,1.563c3.038-4.895,6.006-3.47,9.795-0.182
		c6.165,5.35,8.788,11.905,12.825,14.377C68.536,35.164,65.136,27.307,71.088,33.152z"/>
	<path fill-rule="evenodd" clip-rule="evenodd" fill="#4D4D4D" d="M19.149,10.293c10.52,0.935,24.993,3.231,31.802,13.534
		c9.646,14.599,17.661,8.703,20.225,9.307c-1.77,1.779-13.494,5.012-21.38-7.691c-6.66-10.726-20.554-13.773-30.74-14.931
		C18.898,10.432,18.967,10.328,19.149,10.293z"/>
	<path fill-rule="evenodd" clip-rule="evenodd" fill="#4D4D4D" d="M71.165,33.22C49.713,4.454,27.325,31.321,9.275,23.65
		C28.142,28.123,50.197,2.914,71.165,33.22z"/>
	<path fill-rule="evenodd" clip-rule="evenodd" fill="#4D4D4D" d="M54.439,16.357c-7.596-1.383-14.303-0.115-17.669,5.61
		c-1.818,3.093-1.322,6.625,0.769,8.775c2.593,2.668,7.385,3.379,10.235,0.454c1.211-1.243,2.012-3.651,1.61-5.859
		c-0.35-1.928-1.701-3.72-3.429-4.222c-2.861-0.831-4.268,1.836-2.354,2.608c-1.408-0.429-0.292-2.797,1.802-2.249
		c1.77,0.463,2.975,2.06,3.226,3.805c0.839,5.839-5.732,9.689-10.289,4.559c-1.668-1.878-2.149-4.677-0.518-7.581
		c2.968-5.281,10.954-5.794,15.912-5.161C54.212,16.211,54.692,16.948,54.439,16.357z"/>
	<path fill-rule="evenodd" clip-rule="evenodd" fill="#4D4D4D" d="M36.65,15.663c-1.159-5.515-3.866-9.698-8.665-10.394
		c-2.591-0.375-4.841,0.934-5.717,2.939c-1.088,2.489-0.247,5.923,2.516,7.042c1.175,0.477,3.023,0.353,4.405-0.528
		c1.205-0.769,2.044-2.176,1.906-3.482c-0.227-2.163-2.417-2.376-2.411-0.872c-0.098-1.07,1.81-0.97,2.017,0.598
		c0.175,1.323-0.572,2.579-1.682,3.229c-3.716,2.178-8.129-1.201-5.919-5.695c0.809-1.646,2.568-2.743,4.981-2.441
		c4.386,0.549,6.937,5.804,7.877,9.331C36.687,15.469,36.321,15.996,36.65,15.663z"/>
</g>
<g>
	<path fill-rule="evenodd" clip-rule="evenodd" fill="#4D4D4D" d="M74.349,43.134c3.385,3.247,7.287,6.25,11.61,8.703
		c6.842,3.88,15.811,6.419,22.255,6.248c7.016-0.187,11.435-2.846,13.573-5.781c3.512-4.813,2.649-11-0.786-14.745
		c-3.417-3.723-9.383-5.026-14.239-1.383c-4.369,3.051-4.777,12.414,0.396,14.71c2.289,1.016,5.703-0.206,4.644-2.251
		c-0.174-0.336-0.453-0.499-0.766-0.685c0.327,0.158,0.804,0.854,0.758,1.325c-0.155,1.601-2.539,1.816-3.875,1.234
		c-4.97-2.165-3.707-9.372-0.497-12.687c3.412-3.524,8.032-2.709,11.224,0.138c3.379,3.013,5.158,8.301,2.217,13.129
		c-2.336,3.833-7.677,7.067-18.167,5.253c-8.55-1.477-18.862-5.829-27.486-13.215C74.567,42.515,73.814,42.16,74.349,43.134z"/>
	<path fill-rule="evenodd" clip-rule="evenodd" fill="#4D4D4D" d="M53.087,25.221c5.64,8.379,9.786,15.872,23.884,18.439
		c9.512,1.731,19.282,0.089,22.831-7.326c2.275-3.873,1.056-8.298-1.453-11.093c-5.626-6.264-14.753-2.644-15.276,4.025
		c-0.266,3.377,1.723,7.156,4.737,8.031c3.584,1.04,5.343-2.3,2.948-3.266c1.764,0.537,0.367,3.503-2.257,2.815
		c-2.852-0.746-4.316-3.802-4.133-6.695c0.419-6.634,8.13-9.238,12.978-3.779c2.09,2.352,2.691,5.857,0.647,9.493
		c-3.716,6.613-13.436,6.905-19.645,6.112C65.987,40.399,61.497,36.085,53.087,25.221z"/>
	<path fill-rule="evenodd" clip-rule="evenodd" fill="#4D4D4D" d="M52.949,24.94c6.183,8.516,1.936-0.444,12.287,6.13
		c3.934,2.499,6.865,8.603,12.928,14.142c4.275,3.906,9.255,4.352,10.611-1.563c-3.037,4.895-6.007,3.47-9.795,0.182
		c-6.165-5.35-8.789-11.905-12.825-14.377C55.501,22.93,58.901,30.785,52.949,24.94z"/>
	<path fill-rule="evenodd" clip-rule="evenodd" fill="#4D4D4D" d="M104.887,47.799c-10.52-0.934-24.992-3.231-31.802-13.534
		c-9.646-14.599-17.661-8.702-20.225-9.307c1.77-1.778,13.494-5.012,21.38,7.691C80.9,43.375,94.794,46.422,104.98,47.58
		C105.139,47.661,105.07,47.765,104.887,47.799z"/>
	<path fill-rule="evenodd" clip-rule="evenodd" fill="#4D4D4D" d="M52.873,24.873c21.451,28.767,43.839,1.899,61.889,9.571
		C95.894,29.97,73.84,55.179,52.873,24.873z"/>
	<path fill-rule="evenodd" clip-rule="evenodd" fill="#4D4D4D" d="M69.597,41.736c7.597,1.383,14.304,0.115,17.67-5.611
		c1.818-3.092,1.321-6.624-0.77-8.775c-2.593-2.668-7.385-3.379-10.235-0.454c-1.211,1.243-2.012,3.652-1.61,5.858
		c0.351,1.929,1.701,3.721,3.43,4.223c2.862,0.831,4.268-1.836,2.354-2.607c1.408,0.429,0.292,2.797-1.802,2.249
		c-1.769-0.463-2.976-2.061-3.226-3.806c-0.839-5.839,5.733-9.688,10.289-4.558c1.669,1.878,2.15,4.678,0.517,7.581
		c-2.967,5.281-10.952,5.794-15.911,5.161C69.824,41.881,69.344,41.145,69.597,41.736z"/>
	<path fill-rule="evenodd" clip-rule="evenodd" fill="#4D4D4D" d="M87.385,42.43c1.161,5.515,3.867,9.698,8.666,10.394
		c2.591,0.375,4.841-0.934,5.718-2.94c1.088-2.488,0.246-5.923-2.516-7.043c-1.175-0.476-3.023-0.352-4.404,0.529
		c-1.207,0.768-2.045,2.175-1.907,3.482c0.228,2.163,2.417,2.376,2.411,0.872c0.099,1.07-1.81,0.97-2.017-0.598
		c-0.175-1.323,0.572-2.579,1.683-3.229c3.715-2.179,8.129,1.201,5.919,5.695c-0.81,1.646-2.568,2.743-4.981,2.441
		c-4.386-0.549-6.937-5.804-7.877-9.33C87.349,42.624,87.715,42.097,87.385,42.43z"/>
</g>
</svg>
